<svg width="106" height="106" viewBox="0 0 106 106" fill="none" xmlns="http://www.w3.org/2000/svg">
<path d="M86.125 106H19.875C8.89738 106 0 97.1026 0 86.125V19.875C0 8.89738 8.89738 0 19.875 0H86.125C97.1026 0 106 8.89738 106 19.875V86.125C106 97.1026 97.1026 106 86.125 106Z" fill="#FFE2F8"/>
<path d="M53 79.5C38.3886 79.5 26.5 67.6114 26.5 53C26.5 38.3886 38.3886 26.5 53 26.5C67.6114 26.5 79.5 38.3886 79.5 53C79.5 67.6114 67.6114 79.5 53 79.5ZM53 30.9156C40.8232 30.9156 30.9156 40.8232 30.9156 53C30.9156 65.1768 40.8232 75.0844 53 75.0844C65.1768 75.0844 75.0844 65.1768 75.0844 53C75.0844 40.8232 65.1768 30.9156 53 30.9156Z" fill="#C03BFC"/>
<path d="M35.828 72.3814C35.2616 72.3814 34.6984 72.1661 34.2678 71.7355C33.4066 70.8742 33.4066 69.4764 34.2678 68.6118L68.6151 34.2645C69.4764 33.4032 70.8742 33.4032 71.7388 34.2645C72.6001 35.1257 72.6001 36.5269 71.7388 37.3882L37.3882 71.7355C36.9576 72.1661 36.3911 72.3814 35.828 72.3814Z" fill="#C03BFC"/>
<path d="M55.5904 56.6537L48.4155 63.8286C49.3232 65.4384 51.0291 66.5415 53 66.5415C55.915 66.5415 58.2868 64.1631 58.2868 61.2415C58.2868 59.2706 57.1903 57.5679 55.5904 56.6537Z" fill="#C97EFD"/>
<path d="M43.6886 56.0011C43.9204 55.7692 44.1656 55.5572 44.4107 55.3419L52.0062 47.7464C47.6867 47.9882 43.6488 49.7769 40.5582 52.8807C39.697 53.7453 39.7036 55.1432 40.5682 56.0044C41.4294 56.869 42.8306 56.8657 43.6886 56.0011Z" fill="#C97EFD"/>
<path d="M62.0233 50.2241L58.7737 53.4737C60.0622 54.1097 61.2614 54.9511 62.3081 56.0044C62.7387 56.4384 63.3052 56.6537 63.8749 56.6537C64.4381 56.6537 65.0012 56.4384 65.4318 56.0111C66.2964 55.1498 66.2997 53.7519 65.4418 52.8874C64.4016 51.8406 63.2489 50.9628 62.0233 50.2241Z" fill="#C97EFD"/>
<path d="M67.9626 44.2848L64.8058 47.4416C65.985 48.23 67.0947 49.1376 68.1183 50.1678C68.5489 50.6018 69.1153 50.8171 69.6851 50.8171C70.2482 50.8171 70.8113 50.6018 71.242 50.1744C72.1065 49.3132 72.1098 47.9153 71.2519 47.0508C70.225 46.0239 69.1153 45.1163 67.9626 44.2848Z" fill="#C97EFD"/>
<path d="M37.8818 50.1678C41.923 46.1067 47.2926 43.8707 53 43.8707C53.9109 43.8707 54.8053 43.9469 55.6931 44.0596L59.4528 40.2999C57.3659 39.7599 55.2094 39.4552 53 39.4552C46.11 39.4552 39.6308 42.1516 34.7514 47.0508C33.8902 47.9153 33.8968 49.3132 34.7614 50.1744C35.6226 51.039 37.0238 51.0324 37.8818 50.1678Z" fill="#C97EFD"/>
</svg>
